:version 1.10
:name ASF
:units
  mass 1
  length 1
  angle deg
:documentation
  ASF file generated by Kaydara
:root
  axis xyz
  order  tx ty tz rx ry rz
  position 0 0 0
  orientation 0 0 0
:bonedata
  begin
    id 1
    name RightUpLegDummy
    direction -0.718183 -0.695806 0.00816078
    length 4.904
    axis 0 0 0 xyz
  end
  begin
    id 2
    name RightUpLeg
    direction -0.0736652 -0.994202 0.0783343
    length 17.4976
    axis -2.72909 -3.00389 -4.00133 xyz
    dof rx ry rz
  end
  begin
    id 3
    name RightLeg
    direction -0.0389037 -0.994596 -0.0962598
    length 16.5821
    axis 3.95836 -18.5909 -4.46993 xyz
    dof rx ry rz
  end
  begin
    id 4
    name RightFoot
    direction -0.311643 -0.412678 0.855906
    length 3.77069
    axis -1.99483 -18.8351 -3.27644 xyz
    dof rx ry rz
  end
  begin
    id 5
    name RightToes
    direction -0.317852 0.0389852 0.947339
    length 3.85082
    axis -2.00228 -18.1713 -3.25211 xyz
    dof rx ry rz
  end
  begin
    id 6
    name SpineDummy
    direction 8.3039e-015 1 4.44677e-016
    length 4.6813
    axis 0 0 0 xyz
  end
  begin
    id 7
    name Spine
    direction -0.000262373 0.999988 0.00493267
    length 10.1015
    axis -0.00246081 0.00062579 0.0150362 xyz
    dof rx ry rz
  end
  begin
    id 8
    name Spine1
    direction 0 0 0
    length 0
    axis -0.00349562 0.000650293 0.0196666 xyz
    dof rx ry rz
  end
  begin
    id 9
    name HEadDummy
    direction -0.000343232 0.999999 0.00123745
    length 3.43865
    axis -0.00349562 0.000650293 0.0196666 xyz
  end
  begin
    id 10
    name HEad
    direction -0.0461221 0.980933 0.188796
    length 5.12695
    axis -0.00351404 -7.04812 0.0199272 xyz
    dof rx ry rz
  end
  begin
    id 11
    name LeftShoulder1Dummy
    direction 0.998904 -0.0399089 -0.0244534
    length 3.5433
    axis -0.00349562 0.000650293 0.0196666 xyz
  end
  begin
    id 12
    name LeftShoulder1
    direction 0.99951 1.64443e-005 0.0312999
    length 4.05031
    axis -0.00349562 0.000650293 0.0196666 xyz
    dof rx ry rz
  end
  begin
    id 13
    name LeftArm
    direction 0.984791 0.0515299 0.165927
    length 12.9126
    axis -64.823 -10.7743 5.20463 xyz
    dof rx ry rz
  end
  begin
    id 14
    name LeftForeArm
    direction 0.984968 0.0534808 0.16425
    length 10.8596
    axis -30.0462 -7.70601 1.87451 xyz
    dof rx ry rz
  end
  begin
    id 15
    name LeftHand
    direction 0.975871 0.0289682 0.216418
    length 6.62295
    axis -20.1348 -6.98077 1.86072 xyz
    dof rx ry rz
  end
  begin
    id 16
    name RightShoulderDummy
    direction -0.998877 -0.0405946 -0.0244307
    length 3.5433
    axis -0.00349562 0.000650293 0.0196666 xyz
  end
  begin
    id 17
    name RightShoulder
    direction -0.998933 -0.0249743 -0.0388558
    length 4.05031
    axis -0.0205316 -4.02113 1.41395 xyz
    dof rx ry rz
  end
  begin
    id 18
    name RightArm
    direction -0.997559 0.068664 0.0127103
    length 12.9638
    axis -67.3882 1.84188 -6.15987 xyz
    dof rx ry rz
  end
  begin
    id 19
    name RightForeArm
    direction -0.991508 0.0912848 0.0926241
    length 10.8312
    axis -22.1975 3.41087 -4.28711 xyz
    dof rx ry rz
  end
  begin
    id 20
    name RightHand
    direction -0.989262 0.0600788 0.133232
    length 6.57864
    axis -12.2911 2.17515 -4.39675 xyz
    dof rx ry rz
  end
  begin
    id 21
    name LeftUpLegDummy
    direction 0.718183 -0.695806 0.00816078
    length 4.904
    axis 0 0 0 xyz
  end
  begin
    id 22
    name LeftUpLeg
    direction 0.0831398 -0.99469 0.0606531
    length 17.4976
    axis -1.71016 2.29552 4.63832 xyz
    dof rx ry rz
  end
  begin
    id 23
    name LeftLeg
    direction 0.0498442 -0.991778 -0.117862
    length 16.5821
    axis 5.13757 15.5727 5.13348 xyz
    dof rx ry rz
  end
  begin
    id 24
    name LeftFoot
    direction 0.269026 -0.433896 0.85986
    length 3.77069
    axis -0.576502 15.6961 4.10267 xyz
    dof rx ry rz
  end
  begin
    id 25
    name LeftToes
    direction 0.277311 0.0251143 0.960452
    length 3.85048
    axis -0.576502 15.6961 4.10267 xyz
    dof rx ry rz
  end
:hierarchy
  begin
    root RightUpLegDummy SpineDummy LeftUpLegDummy
    RightUpLegDummy RightUpLeg
    RightUpLeg RightLeg
    RightLeg RightFoot
    RightFoot RightToes
    SpineDummy Spine
    Spine Spine1
    Spine1 HEadDummy LeftShoulder1Dummy RightShoulderDummy
    HEadDummy HEad
    LeftShoulder1Dummy LeftShoulder1
    LeftShoulder1 LeftArm
    LeftArm LeftForeArm
    LeftForeArm LeftHand
    RightShoulderDummy RightShoulder
    RightShoulder RightArm
    RightArm RightForeArm
    RightForeArm RightHand
    LeftUpLegDummy LeftUpLeg
    LeftUpLeg LeftLeg
    LeftLeg LeftFoot
    LeftFoot LeftToes
  end

:SAMPLES-PER-SECOND 30
:FULLY-SPECIFIED
:DEGREES
95
root  -7.80878 19.6552 73.8981 -132.662 7.78185 -171.416
RightUpLeg  -55.5601 -8.07161 4.47948
RightLeg  119.71 15.5426 0.0902797
RightFoot  -42.7331 3.94643 14.3558
RightToes  -5.82073e-011 -3.18055e-015 -2.98177e-016
Spine  43.8416 -0.219901 10.6391
Spine1  -6.00176 4.04248 -0.881165
HEad  -11.125 -2.04409 -9.09108
LeftShoulder1  -3.88251e-019 9.70628e-020 -3.87848e-018
LeftArm  -4.83602 -21.8204 -74.1941
LeftForeArm  18.3668 -5.34886 -6.48228
LeftHand  -12.1471 -11.1736 74.9502
RightShoulder  5.27453 10.8179 23.1796
RightArm  7.51405 23.6298 55.3579
RightForeArm  30.1115 3.27778 -1.45933
RightHand  -11.8682 10.0669 -75.6398
LeftUpLeg  -52.0983 -2.13216 -4.41662
LeftLeg  117.753 -18.622 9.3957
LeftFoot  -50.098 -8.45831 -24.5118
LeftToes  -2.27483e-011 -5.53417e-011 9.36564e-012
96
root  -7.40715 19.5532 73.8554 -133.944 6.58255 -173.985
RightUpLeg  -53.4952 -8.69717 4.53199
RightLeg  119.478 16.8708 -2.15094
RightFoot  -43.6863 4.17028 14.6815
RightToes  -5.82073e-011 -3.18055e-015 -2.98177e-016
Spine  44.4824 -0.75014 9.57252
Spine1  -7.35745 3.01544 0.444197
HEad  -10.6652 -1.74548 -9.36219
LeftShoulder1  -3.88251e-019 9.70628e-020 -3.87848e-018
LeftArm  -6.09909 -20.9795 -74.5552
LeftForeArm  20.0558 -3.95739 -6.65425
LeftHand  -12.2975 -11.2887 75.2412
RightShoulder  5.45055 10.9017 23.9787
RightArm  7.34472 22.5223 55.2215
RightForeArm  30.6956 2.87215 -1.16855
RightHand  -12.0813 10.1813 -76.2274
LeftUpLeg  -51.002 -4.04226 -4.33026
LeftLeg  118.016 -18.2806 8.74685
LeftFoot  -50.0382 -8.46204 -24.5643
LeftToes  -2.27483e-011 -5.53417e-011 9.36564e-012
97
root  -6.97534 19.4287 73.8634 -135.926 5.42038 -176.943
RightUpLeg  -51.0758 -9.88493 3.85877
RightLeg  120.254 17.9725 -3.87965
RightFoot  -44.3429 4.11278 14.1476
RightToes  -5.82073e-011 -3.18055e-015 -2.98177e-016
Spine  45.609 -1.2706 8.0465
Spine1  -8.36831 1.89267 1.93938
HEad  -10.4023 -1.58265 -9.49121
LeftShoulder1  -3.88251e-019 9.70628e-020 -3.87848e-018
LeftArm  -7.46375 -20.4042 -74.8166
LeftForeArm  21.9803 -2.49725 -6.80371
LeftHand  -12.4294 -11.389 75.4946
RightShoulder  5.68629 10.9962 25.0662
RightArm  7.2607 21.6183 54.9364
RightForeArm  31.2582 2.47218 -0.866062
RightHand  -12.1175 10.0201 -76.9756
LeftUpLeg  -49.2329 -6.0779 -4.80775
LeftLeg  118.208 -18.1274 8.43572
LeftFoot  -49.9649 -8.48493 -24.6815
LeftToes  -2.27483e-011 -5.53417e-011 9.36564e-012
98
root  -6.52527 19.3562 73.9303 -138.155 4.32681 -179.173
RightUpLeg  -48.8924 -11.1517 3.72017
RightLeg  121.101 19.1845 -5.64182
RightFoot  -44.0064 3.6719 12.7215
RightToes  -5.82073e-011 -3.18055e-015 -2.98177e-016
Spine  47.3345 -1.57951 6.69048
Spine1  -9.36363 1.12716 3.09966
HEad  -10.5889 -1.51658 -9.23232
LeftShoulder1  -3.88251e-019 9.70628e-020 -3.87848e-018
LeftArm  -8.5873 -20.212 -74.759
LeftForeArm  23.819 -1.54155 -7.08984
LeftHand  -12.5447 -11.492 75.6604
RightShoulder  5.86533 11.0379 25.9346
RightArm  7.18943 20.501 54.59
RightForeArm  31.4397 2.55138 -0.666993
RightHand  -11.9728 9.75183 -77.2771
LeftUpLeg  -47.2726 -7.35874 -4.89226
LeftLeg  118.493 -18.0715 8.25978
LeftFoot  -49.7702 -8.51784 -24.9145
LeftToes  -2.27483e-011 -5.53417e-011 9.36564e-012
99
root  -6.13531 19.3403 73.9994 -139.387 3.629 -179.756
RightUpLeg  -48.3819 -11.7734 4.73465
RightLeg  121.872 20.0175 -6.72908
RightFoot  -42.3557 3.02997 11.0595
RightToes  -5.82073e-011 -3.18055e-015 -2.98177e-016
Spine  48.8684 -1.64587 6.37639
Spine1  -10.8455 1.08939 3.00651
HEad  -11.1449 -1.54322 -8.61607
LeftShoulder1  -3.88251e-019 9.70628e-020 -3.87848e-018
LeftArm  -9.61267 -20.1527 -74.6329
LeftForeArm  25.3751 -1.69593 -7.25711
LeftHand  -12.6286 -11.5274 75.9136
RightShoulder  5.96461 11.0343 26.4614
RightArm  6.88636 19.0786 54.3229
RightForeArm  31.4178 2.91701 -0.700178
RightHand  -11.9673 9.8428 -76.9196
LeftUpLeg  -46.2989 -7.3113 -3.95381
LeftLeg  118.823 -18.0826 8.18119
LeftFoot  -49.3659 -8.50298 -25.1624
LeftToes  -2.27483e-011 -5.53417e-011 9.36564e-012
100
root  -5.8401 19.2866 74.0393 -139.196 3.67619 -179.374
RightUpLeg  -49.3472 -11.6326 5.91135
RightLeg  122.902 20.0437 -6.5385
RightFoot  -40.9761 2.63441 10.0708
RightToes  -5.82073e-011 -3.18055e-015 -2.98177e-016
Spine  49.4181 -1.44796 6.54713
Spine1  -12.5065 1.47947 1.94867
HEad  -12.0021 -1.5694 -7.91751
LeftShoulder1  -3.88251e-019 9.70628e-020 -3.87848e-018
LeftArm  -10.5743 -19.8736 -74.6624
LeftForeArm  26.3332 -1.69806 -7.16647
LeftHand  -12.5965 -11.4144 76.1549
RightShoulder  6.08593 11.0393 27.0857
RightArm  6.40079 17.9383 54.2899
RightForeArm  31.6508 2.97148 -0.886165
RightHand  -12.2211 10.2937 -76.4728
LeftUpLeg  -46.5919 -6.3227 -2.86218
LeftLeg  119.039 -18.2985 8.46268
LeftFoot  -48.8802 -8.4368 -25.3238
LeftToes  -2.27483e-011 -5.53417e-011 9.36564e-012
101
root  -5.58145 19.1761 74.0814 -138.657 4.29865 -179.188
RightUpLeg  -49.9489 -11.2 6.27026
RightLeg  123.761 19.5757 -5.70679
RightFoot  -41.2794 2.60147 9.81737
RightToes  -5.82073e-011 -3.18055e-015 -2.98177e-016
Spine  49.4547 -0.950516 6.0384
Spine1  -13.6793 1.78055 1.30986
HEad  -13.1635 -1.40871 -7.38222
LeftShoulder1  -3.88251e-019 9.70628e-020 -3.87848e-018
LeftArm  -11.0616 -19.477 -74.5788
LeftForeArm  26.7781 -1.65308 -6.87837
LeftHand  -12.5113 -11.3277 76.0714
RightShoulder  6.22302 11.0695 27.7421
RightArm  6.01153 17.4149 54.7019
RightForeArm  32.089 2.51222 -1.00904
RightHand  -12.4938 10.6379 -76.5039
LeftUpLeg  -47.0597 -5.20983 -2.4404
LeftLeg  119.202 -18.5537 8.81742
LeftFoot  -48.6578 -8.40845 -25.4048
LeftToes  -2.27483e-011 -5.53417e-011 9.36564e-012
102
root  -5.30115 19.1004 74.145 -138.632 4.98671 -179.209
RightUpLeg  -49.3966 -10.6364 6.3599
RightLeg  123.779 19.1148 -5.06488
RightFoot  -42.6826 2.73098 9.8002
RightToes  -5.82073e-011 -3.18055e-015 -2.98177e-016
Spine  49.8142 -0.292673 4.90113
Spine1  -14.3868 1.95245 1.48838
HEad  -14.439 -1.14882 -6.7751
LeftShoulder1  -3.88251e-019 9.70628e-020 -3.87848e-018
LeftArm  -10.9886 -19.4362 -73.9875
LeftForeArm  27.1782 -1.65381 -6.83834
LeftHand  -12.5683 -11.4975 75.7473
RightShoulder  6.27044 11.1052 27.9205
RightArm  5.78636 17.0859 55.5769
RightForeArm  32.2316 1.84971 -0.979526
RightHand  -12.6163 10.6835 -76.8948
LeftUpLeg  -46.9688 -4.24667 -2.04293
LeftLeg  119.525 -18.4206 8.51121
LeftFoot  -48.8574 -8.47803 -25.4628
LeftToes  -2.27483e-011 -5.53417e-011 9.36564e-012
103
root  -5.02449 19.1128 74.1898 -138.731 5.3669 -178.804
RightUpLeg  -48.6022 -9.72331 7.08208
RightLeg  123.127 18.7979 -4.72422
RightFoot  -43.7416 2.8693 9.93524
RightToes  -5.82073e-011 -3.18055e-015 -2.98177e-016
Spine  50.5245 0.221736 4.22789
Spine1  -15.2491 2.22181 1.42238
HEad  -15.4923 -1.28029 -5.44169
LeftShoulder1  -3.88251e-019 9.70628e-020 -3.87848e-018
LeftArm  -10.8999 -19.9108 -73.1914
LeftForeArm  27.8826 -1.71062 -7.06298
LeftHand  -12.7366 -11.74 75.6744
RightShoulder  6.2624 11.1333 27.826
RightArm  5.64194 16.5779 56.366
RightForeArm  31.9048 1.4025 -0.843842
RightHand  -12.6979 10.6971 -77.2107
LeftUpLeg  -46.7584 -3.26773 -0.868389
LeftLeg  119.898 -17.9072 7.60549
LeftFoot  -49.126 -8.55957 -25.5042
LeftToes  -2.27483e-011 -5.53417e-011 9.36564e-012
104
root  -4.81132 19.1594 74.1965 -138.405 5.38681 -178.108
RightUpLeg  -48.5127 -8.67351 8.19706
RightLeg  122.603 18.5919 -4.50713
RightFoot  -43.8934 2.94049 10.1402
RightToes  -5.82073e-011 -3.18055e-015 -2.98177e-016
Spine  51.0418 0.353413 4.43358
Spine1  -16.4482 2.50508 0.544721
HEad  -16.2153 -2.09274 -3.11514
LeftShoulder1  -3.88251e-019 9.70628e-020 -3.87848e-018
LeftArm  -11.295 -20.4351 -72.8324
LeftForeArm  28.7737 -1.72962 -7.06316
LeftHand  -12.747 -11.6469 76.034
RightShoulder  6.35781 11.1518 28.2826
RightArm  5.6695 16.1075 56.4539
RightForeArm  31.5143 1.3477 -0.628154
RightHand  -12.8388 10.8389 -77.3424
LeftUpLeg  -47.0531 -2.46787 0.610008
LeftLeg  119.988 -17.5445 7.01793
LeftFoot  -49.0174 -8.53743 -25.5194
LeftToes  -2.27483e-011 -5.53417e-011 9.36564e-012
105
root  -4.67005 19.1816 74.2094 -138.01 5.1832 -177.876
RightUpLeg  -49.004 -8.10533 8.87415
RightLeg  122.654 18.5575 -4.44875
RightFoot  -43.3777 2.83984 9.9556
RightToes  -5.82073e-011 -3.18055e-015 -2.98177e-016
Spine  51.2262 0.168719 4.83611
Spine1  -17.4739 2.51609 -0.287551
HEad  -16.8034 -3.21575 -0.508581
LeftShoulder1  -3.88251e-019 9.70628e-020 -3.87848e-018
LeftArm  -11.9897 -20.5783 -72.8558
LeftForeArm  29.5001 -1.68926 -6.76377
LeftHand  -12.5309 -11.2592 76.3945
RightShoulder  6.5588 11.1552 29.3072
RightArm  5.9563 15.9638 55.9933
RightForeArm  31.3463 1.53664 -0.334763
RightHand  -12.9542 10.9555 -77.4474
LeftUpLeg  -47.6236 -2.26112 1.44946
LeftLeg  119.767 -17.5968 7.15409
LeftFoot  -48.6055 -8.42377 -25.4896
LeftToes  -2.27483e-011 -5.53417e-011 9.36564e-012
106
root  -4.55889 19.1878 74.2567 -138.197 4.94957 -178.214
RightUpLeg  -49.3498 -8.12988 9.00947
RightLeg  123.072 18.7177 -4.61701
RightFoot  -42.5175 2.5508 9.17403
RightToes  -5.82073e-011 -3.18055e-015 -2.98177e-016
Spine  51.5435 0.0100408 4.82672
Spine1  -18.0519 2.3524 -0.198611
HEad  -17.3088 -4.1344 1.27231
LeftShoulder1  -3.88251e-019 9.70628e-020 -3.87848e-018
LeftArm  -12.6859 -20.3392 -72.6881
LeftForeArm  30.0904 -1.68442 -6.66842
LeftHand  -12.3519 -11.0504 76.3125
RightShoulder  6.70415 11.139 30.0802
RightArm  6.30962 16.0123 55.6135
RightForeArm  31.3055 1.65396 -0.0272042
RightHand  -12.9643 10.933 -77.5682
LeftUpLeg  -47.6993 -2.52594 1.6318
LeftLeg  119.517 -17.7616 7.47723
LeftFoot  -48.3073 -8.31998 -25.4026
LeftToes  -2.27483e-011 -5.53417e-011 9.36564e-012
107
root  -4.45149 19.1957 74.3048 -138.808 4.83458 -178.476
RightUpLeg  -49.2927 -8.1736 9.17854
RightLeg  123.476 18.9809 -4.92754
RightFoot  -41.627 2.25858 8.34183
RightToes  -5.82073e-011 -3.18055e-015 -2.98177e-016
Spine  52.1946 0.130319 4.55885
Spine1  -18.5267 2.37449 0.483011
HEad  -17.5562 -4.81563 1.89615
LeftShoulder1  -3.88251e-019 9.70628e-020 -3.87848e-018
LeftArm  -13.3351 -19.797 -72.2972
LeftForeArm  30.6544 -1.73204 -6.85497
LeftHand  -12.3806 -11.2145 75.8735
RightShoulder  6.76129 11.1192 30.4095
RightArm  6.47269 16.0258 55.5166
RightForeArm  31.4632 1.50577 0.182598
RightHand  -12.9323 10.8839 -77.597
LeftUpLeg  -47.1686 -2.61844 1.80015
LeftLeg  119.462 -17.7535 7.47897
LeftFoot  -48.2795 -8.28229 -25.3099
LeftToes  -2.27483e-011 -5.53417e-011 9.36564e-012
108
root  -4.36304 19.1984 74.3216 -139.305 4.82291 -178.291
RightUpLeg  -49.0119 -7.90752 9.69076
RightLeg  123.631 19.2652 -5.30025
RightFoot  -41.0722 2.14029 8.04776
RightToes  -5.82073e-011 -3.18055e-015 -2.98177e-016
Spine  52.8286 0.399351 4.45702
Spine1  -19.0386 2.6357 1.00903
HEad  -17.6133 -5.45807 2.01842
LeftShoulder1  -3.88251e-019 9.70628e-020 -3.87848e-018
LeftArm  -13.7254 -19.0034 -72.1985
LeftForeArm  30.8277 -1.73481 -6.84878
LeftHand  -12.4551 -11.4225 75.4956
RightShoulder  6.83627 11.1155 30.7975
RightArm  6.43754 16.0408 55.5026
RightForeArm  31.995 1.23501 0.220751
RightHand  -12.9475 10.9315 -77.5
LeftUpLeg  -46.5564 -2.28719 2.25968
LeftLeg  119.589 -17.643 7.27189
LeftFoot  -48.3279 -8.27125 -25.2403
LeftToes  -2.27483e-011 -5.53417e-011 9.36564e-012
109
root  -4.31013 19.1915 74.3272 -139.486 4.82092 -177.91
RightUpLeg  -48.7728 -7.58688 10.3429
RightLeg  123.481 19.5784 -5.76499
RightFoot  -41 2.14523 8.0896
RightToes  -5.82073e-011 -3.18055e-015 -2.98177e-016
Spine  53.1337 0.610973 4.56097
Spine1  -19.3584 2.92065 1.31198
HEad  -17.7911 -6.09142 2.28422
LeftShoulder1  -3.88251e-019 9.70628e-020 -3.87848e-018
LeftArm  -13.7999 -18.3305 -72.4404
LeftForeArm  30.5053 -1.67901 -6.59019
LeftHand  -12.398 -11.3629 75.4426
RightShoulder  6.89696 11.0952 31.1459
RightArm  6.38383 16.0444 55.4905
RightForeArm  32.5293 1.19299 0.131162
RightHand  -13.0079 11.0465 -77.3701
LeftUpLeg  -46.2914 -1.86923 2.81073
LeftLeg  119.796 -17.5504 7.07448
LeftFoot  -48.2998 -8.23151 -25.1415
LeftToes  -2.27483e-011 -5.53417e-011 9.36564e-012
